# MagicaVoxel @ Ephtracy

# group
o 

# material
mtllib 3x3x3.mtl
usemtl palette

# normals
vn -1 0 0
vn 1 0 0
vn 0 0 1
vn 0 0 -1
vn 0 -1 0
vn 0 1 0

# texcoords
vt 0.974609 0.5
vt 0.978516 0.5
vt 0.982422 0.5
vt 0.990234 0.5
vt 0.994141 0.5

# verts
v -0.2 0.5 0.1
v -0.2 0.5 -0.2
v -0.2 0.9 0.1
v -0.2 0.9 -2.98023e-008
v -0.2 0.9 -0.1
v -0.2 0.9 -0.2
v -0.2 1 -2.98023e-008
v -0.2 1 -0.1
v -0.1 0 0.1
v -0.1 0 -0.2
v -0.1 0.5 0.1
v -0.1 0.5 -0.2
v -0.1 0.6 0.2
v -0.1 0.6 0.1
v -0.1 0.6 -0.2
v -0.1 0.6 -0.3
v -0.1 0.9 0.2
v -0.1 0.9 0.1
v -0.1 0.9 -2.98023e-008
v -0.1 0.9 -0.1
v -0.1 0.9 -0.2
v -0.1 0.9 -0.3
v -0.1 1 0.1
v -0.1 1 -2.98023e-008
v -0.1 1 -0.1
v -0.1 1 -0.2
v 2.98023e-008 0 0.2
v 2.98023e-008 0 0.1
v 2.98023e-008 0 -0.2
v 2.98023e-008 0 -0.3
v 2.98023e-008 0.5 -0.2
v 2.98023e-008 0.6 0.2
v 2.98023e-008 0.6 0.1
v 2.98023e-008 0.6 -0.2
v 2.98023e-008 0.6 -0.3
v 0.2 0 0.2
v 0.2 0 0.1
v 0.2 0 -0.2
v 0.2 0 -0.3
v 0.2 0.6 -0.2
v 0.2 0.8 0.1
v 0.2 0.8 -0.2
v 0.2 0.9 0.2
v 0.2 0.9 0.1
v 0.2 0.9 -0.2
v 0.2 0.9 -0.3
v 0.3 0 0.1
v 0.3 0 -0.2
v 0.3 0.6 0.1
v 0.3 0.6 -2.98023e-008
v 0.3 0.6 -0.2
v 0.6 0.9 0.1
v 0.6 0.9 -2.98023e-008
v 0.6 0.9 -0.1
v 0.6 0.9 -0.2
v 0.6 1 0.1
v 0.6 1 -2.98023e-008
v 0.6 1 -0.1
v 0.6 1 -0.2
v 0.8 0.6 0.1
v 0.8 0.6 -0.2
v 0.8 0.9 0.1
v 0.8 0.9 -0.2
v -0.1 0.6 0.2
v -0.1 0.9 0.2
v 2.98023e-008 0 0.2
v 2.98023e-008 0.6 0.2
v 0.2 0 0.2
v 0.2 0.9 0.2
v -0.2 0.5 0.1
v -0.2 0.9 0.1
v -0.1 0 0.1
v -0.1 0.5 0.1
v -0.1 0.6 0.1
v -0.1 0.9 0.1
v -0.1 1 0.1
v 2.98023e-008 0 0.1
v 2.98023e-008 0.6 0.1
v 0.2 0 0.1
v 0.2 0.8 0.1
v 0.2 0.9 0.1
v 0.3 0 0.1
v 0.3 0.6 0.1
v 0.6 0.9 0.1
v 0.6 1 0.1
v 0.7 0.6 0.1
v 0.7 0.8 0.1
v 0.7 0.9 0.1
v 0.8 0.6 0.1
v 0.8 0.9 0.1
v -0.2 0.9 -2.98023e-008
v -0.2 1 -2.98023e-008
v -0.1 0.9 -2.98023e-008
v -0.1 1 -2.98023e-008
v -0.2 0.9 -0.1
v -0.2 1 -0.1
v -0.1 0.9 -0.1
v -0.1 1 -0.1
v -0.2 0.5 -0.2
v -0.2 0.9 -0.2
v -0.1 0 -0.2
v -0.1 0.5 -0.2
v -0.1 0.6 -0.2
v -0.1 0.9 -0.2
v -0.1 1 -0.2
v 2.98023e-008 0 -0.2
v 2.98023e-008 0.5 -0.2
v 2.98023e-008 0.6 -0.2
v 0.2 0 -0.2
v 0.2 0.6 -0.2
v 0.2 0.8 -0.2
v 0.2 0.9 -0.2
v 0.3 0 -0.2
v 0.3 0.6 -0.2
v 0.6 0.9 -0.2
v 0.6 1 -0.2
v 0.7 0.6 -0.2
v 0.7 0.8 -0.2
v 0.7 0.9 -0.2
v 0.8 0.6 -0.2
v 0.8 0.9 -0.2
v -0.1 0.6 -0.3
v -0.1 0.9 -0.3
v 2.98023e-008 0 -0.3
v 2.98023e-008 0.6 -0.3
v 0.2 0 -0.3
v 0.2 0.9 -0.3
v 2.98023e-008 0 0.2
v 0.2 0 0.2
v -0.1 0 0.1
v 2.98023e-008 0 0.1
v 0.2 0 0.1
v 0.3 0 0.1
v 2.98023e-008 0 -2.98023e-008
v 0.2 0 -2.98023e-008
v -0.1 0 -0.2
v 2.98023e-008 0 -0.2
v 0.2 0 -0.2
v 0.3 0 -0.2
v 2.98023e-008 0 -0.3
v 0.2 0 -0.3
v -0.2 0.5 0.1
v -0.1 0.5 0.1
v -0.2 0.5 -0.2
v -0.1 0.5 -0.2
v -0.1 0.6 0.2
v 2.98023e-008 0.6 0.2
v -0.1 0.6 0.1
v 2.98023e-008 0.6 0.1
v 0.3 0.6 0.1
v 0.7 0.6 0.1
v 0.8 0.6 0.1
v 0.3 0.6 -2.98023e-008
v 0.7 0.6 -2.98023e-008
v -0.1 0.6 -0.2
v 2.98023e-008 0.6 -0.2
v 0.3 0.6 -0.2
v 0.7 0.6 -0.2
v 0.8 0.6 -0.2
v -0.1 0.6 -0.3
v 2.98023e-008 0.6 -0.3
v -0.1 0.9 0.2
v 0.2 0.9 0.2
v -0.2 0.9 0.1
v -0.1 0.9 0.1
v 0.2 0.9 0.1
v 0.6 0.9 0.1
v 0.7 0.9 0.1
v 0.8 0.9 0.1
v -0.2 0.9 -2.98023e-008
v -0.1 0.9 -2.98023e-008
v 0.6 0.9 -2.98023e-008
v -0.2 0.9 -0.1
v -0.1 0.9 -0.1
v 0.6 0.9 -0.1
v -0.2 0.9 -0.2
v -0.1 0.9 -0.2
v 0.2 0.9 -0.2
v 0.6 0.9 -0.2
v 0.7 0.9 -0.2
v 0.8 0.9 -0.2
v -0.1 0.9 -0.3
v 0.2 0.9 -0.3
v -0.1 1 0.1
v 0.6 1 0.1
v -0.2 1 -2.98023e-008
v -0.1 1 -2.98023e-008
v 0.6 1 -2.98023e-008
v -0.2 1 -0.1
v -0.1 1 -0.1
v 0.6 1 -0.1
v -0.1 1 -0.2
v 0.6 1 -0.2

# faces
f 3/4/1 2/4/1 1/4/1
f 4/4/1 2/4/1 3/4/1
f 5/4/1 2/4/1 4/4/1
f 6/4/1 2/4/1 5/4/1
f 7/4/1 5/4/1 4/4/1
f 8/4/1 5/4/1 7/4/1
f 11/3/1 10/3/1 9/3/1
f 12/3/1 10/3/1 11/3/1
f 17/1/1 14/1/1 13/1/1
f 18/1/1 14/1/1 17/1/1
f 21/1/1 16/1/1 15/1/1
f 22/1/1 16/1/1 21/1/1
f 23/2/1 19/2/1 18/2/1
f 24/2/1 19/2/1 23/2/1
f 25/2/1 21/2/1 20/2/1
f 26/2/1 21/2/1 25/2/1
f 31/1/1 30/1/1 29/1/1
f 32/1/1 28/1/1 27/1/1
f 33/1/1 28/1/1 32/1/1
f 34/1/1 30/1/1 31/1/1
f 35/1/1 30/1/1 34/1/1
f 38/1/2 39/1/2 40/1/2
f 36/1/2 37/1/2 41/1/2
f 40/1/2 39/1/2 42/1/2
f 36/1/2 41/1/2 43/1/2
f 43/1/2 41/1/2 44/1/2
f 42/1/2 39/1/2 45/1/2
f 45/1/2 39/1/2 46/1/2
f 47/3/2 48/3/2 49/3/2
f 49/3/2 48/3/2 50/3/2
f 50/3/2 48/3/2 51/3/2
f 52/2/2 53/2/2 56/2/2
f 53/4/2 54/4/2 57/4/2
f 56/2/2 53/2/2 57/2/2
f 54/2/2 55/2/2 58/2/2
f 57/4/2 54/4/2 58/4/2
f 58/2/2 55/2/2 59/2/2
f 60/5/2 61/5/2 62/5/2
f 62/5/2 61/5/2 63/5/2
f 67/1/3 65/1/3 64/1/3
f 68/1/3 67/1/3 66/1/3
f 69/1/3 65/1/3 67/1/3
f 69/1/3 67/1/3 68/1/3
f 73/4/3 71/4/3 70/4/3
f 74/4/3 71/4/3 73/4/3
f 75/4/3 71/4/3 74/4/3
f 77/3/3 73/3/3 72/3/3
f 77/3/3 74/3/3 73/3/3
f 78/3/3 74/3/3 77/3/3
f 81/2/3 76/2/3 75/2/3
f 82/3/3 80/3/3 79/3/3
f 83/3/3 80/3/3 82/3/3
f 84/2/3 81/2/3 80/2/3
f 84/2/3 76/2/3 81/2/3
f 85/2/3 76/2/3 84/2/3
f 86/3/3 80/3/3 83/3/3
f 87/2/3 84/2/3 80/2/3
f 87/3/3 80/3/3 86/3/3
f 88/2/3 84/2/3 87/2/3
f 89/5/3 87/5/3 86/5/3
f 89/5/3 88/5/3 87/5/3
f 90/5/3 88/5/3 89/5/3
f 93/4/3 92/4/3 91/4/3
f 94/4/3 92/4/3 93/4/3
f 95/4/4 96/4/4 97/4/4
f 97/4/4 96/4/4 98/4/4
f 99/4/4 100/4/4 102/4/4
f 102/4/4 100/4/4 103/4/4
f 103/4/4 100/4/4 104/4/4
f 101/3/4 102/3/4 106/3/4
f 102/1/4 103/1/4 107/1/4
f 106/3/4 102/3/4 107/3/4
f 107/1/4 103/1/4 108/1/4
f 104/2/4 105/2/4 112/2/4
f 109/3/4 110/3/4 113/3/4
f 110/1/4 111/1/4 114/1/4
f 113/3/4 110/3/4 114/3/4
f 111/2/4 112/2/4 115/2/4
f 112/2/4 105/2/4 115/2/4
f 115/2/4 105/2/4 116/2/4
f 114/1/4 111/1/4 117/1/4
f 111/2/4 115/2/4 118/2/4
f 117/1/4 111/1/4 118/1/4
f 118/2/4 115/2/4 119/2/4
f 117/5/4 118/5/4 120/5/4
f 118/5/4 119/5/4 120/5/4
f 120/5/4 119/5/4 121/5/4
f 122/1/4 123/1/4 125/1/4
f 124/1/4 125/1/4 126/1/4
f 125/1/4 123/1/4 127/1/4
f 126/1/4 125/1/4 127/1/4
f 131/1/5 129/1/5 128/1/5
f 132/1/5 129/1/5 131/1/5
f 134/3/5 131/3/5 130/3/5
f 134/3/5 133/3/5 132/3/5
f 134/3/5 132/3/5 131/3/5
f 135/3/5 133/3/5 134/3/5
f 136/3/5 134/3/5 130/3/5
f 137/1/5 135/1/5 134/1/5
f 137/3/5 134/3/5 136/3/5
f 138/3/5 133/3/5 135/3/5
f 138/1/5 135/1/5 137/1/5
f 139/3/5 133/3/5 138/3/5
f 140/1/5 138/1/5 137/1/5
f 141/1/5 138/1/5 140/1/5
f 144/4/5 143/4/5 142/4/5
f 145/4/5 143/4/5 144/4/5
f 148/1/5 147/1/5 146/1/5
f 149/1/5 147/1/5 148/1/5
f 153/3/5 151/3/5 150/3/5
f 154/5/5 152/5/5 151/5/5
f 154/3/5 151/3/5 153/3/5
f 157/1/5 154/1/5 153/1/5
f 158/5/5 152/5/5 154/5/5
f 158/1/5 154/1/5 157/1/5
f 159/5/5 152/5/5 158/5/5
f 160/1/5 156/1/5 155/1/5
f 161/1/5 156/1/5 160/1/5
f 162/1/6 163/1/6 165/1/6
f 165/1/6 163/1/6 166/1/6
f 164/4/6 165/4/6 170/4/6
f 170/4/6 165/4/6 171/4/6
f 167/2/6 168/2/6 172/2/6
f 172/2/6 168/2/6 175/2/6
f 173/4/6 174/4/6 176/4/6
f 176/4/6 174/4/6 177/4/6
f 175/2/6 168/2/6 179/2/6
f 168/5/6 169/5/6 180/5/6
f 179/2/6 168/2/6 180/2/6
f 180/5/6 169/5/6 181/5/6
f 177/1/6 178/1/6 182/1/6
f 182/1/6 178/1/6 183/1/6
f 184/2/6 185/2/6 187/2/6
f 187/2/6 185/2/6 188/2/6
f 186/4/6 187/4/6 189/4/6
f 187/4/6 188/4/6 189/4/6
f 189/4/6 188/4/6 190/4/6
f 190/4/6 188/4/6 191/4/6
f 190/2/6 191/2/6 192/2/6
f 192/2/6 191/2/6 193/2/6
